# xmcd
#
# Track frame offsets:
#	150
#	19503
#	40045
#	63775
#	81633
#	101321
#	134629
#	165714
#
# Disc length: 2468 seconds
#
# Revision: 1
# Processed by: cddbd v1.5.2PL0 Copyright (c) Steve Scherf et al.
# Submitted via: EZCDAudioConverter 5.0.0.1
#
DISCID=5f09a208
DTITLE=Los Fabulosos Blueshakers - You're Gonna Miss Me When I'm Gone
DYEAR=1900
DGENRE=Blues
TTITLE0=Nitelife Boogie
TTITLE1=Don't Gon No Further
TTITLE2=Hoodoo Man Blues
TTITLE3=To Lazy
TTITLE4=Tell Me What's The Reason
TTITLE5=Slow In C
TTITLE6=Six Strings Down
TTITLE7=That's Alright
EXTD=
EXTT0=
EXTT1=
EXTT2=
EXTT3=
EXTT4=
EXTT5=
EXTT6=
EXTT7=
PLAYORDER=
